<?xml version="1.0" encoding="utf-8"?>
<!-- Generator: Adobe Illustrator 16.0.0, SVG Export Plug-In . SVG Version: 6.00 Build 0)  -->
<!DOCTYPE svg PUBLIC "-//W3C//DTD SVG 1.1//EN" "http://www.w3.org/Graphics/SVG/1.1/DTD/svg11.dtd">
<svg class="topClmn" width="100%" viewBox="0 0 3500 217" version="1.1" xmlns="http://www.w3.org/2000/svg">
<g id="backgr">
<path fill="#D71F25" opacity="1.00" d="M 0 0 L 3500 0 L 3500 4.41 C 3497.18 4.55 3494.37 4.68 3491.6 4.77 C 3468.04 7.28 3444.61 11.16 3421.04 13.73 C 3335.58 24 3250.35 36.06 3164.95 46.79 C 3033.51 63.06 2902 78.86 2770.33 93.23 C 2738.53 97.39 2706.61 100.66 2674.7 103.81 C 2569.07 115.09 2463.32 125.02 2357.59 135.42 C 2320.12 139.34 2282.5 141.45 2245.02 145.28 C 2197.7 149.2 2150.48 154.58 2103.03 156.51 C 2084.82 156.67 2066.79 159.65 2048.62 160.51 C 1995.79 164.46 1942.82 166.53 1889.94 169.5 C 1847.64 171.06 1805.29 170.65 1762.99 172.33 C 1716.66 172.11 1670.29 172.11 1624.01 169.78 C 1558.23 168.93 1492.65 163.66 1427.03 159.46 C 1349.23 153.81 1271.44 147.93 1193.76 140.73 C 1174.81 139.11 1155.81 137.77 1136.98 135.15 C 1098.08 130.78 1059 128.34 1020.06 124.39 C 909.73 112.33 799.2 102.3 688.99 89.09 C 642.7 83.21 596.44 76.9 549.95 72.71 C 438.48 59.74 327.26 44.76 215.81 31.73 C 158.8 25.04 102.02 16.56 45.05 9.52 C 30.02 7.95 15.12 4.84 0 4.33 L 0 0 Z"></path>
</g>
</svg>