<?xml version="1.0" encoding="utf-8"?>
<!-- Generator: Adobe Illustrator 16.0.0, SVG Export Plug-In . SVG Version: 6.00 Build 0)  -->
<!DOCTYPE svg PUBLIC "-//W3C//DTD SVG 1.1//EN" "http://www.w3.org/Graphics/SVG/1.1/DTD/svg11.dtd">
<svg class="topClmn" width="100%" viewBox="0 0 3500 217" version="1.1" xmlns="http://www.w3.org/2000/svg">
<g id="backgr">
<path fill="#D71F25" opacity="1.00" d=" M 0.00 2.26 C 38.24 7.72 76.40 14.11 114.86 18.35 C 163.97 24.18 212.88 31.70 261.97 37.75 C 330.68 45.53 399.23 54.55 467.91 62.55 C 516.96 68.28 565.87 75.10 615.01 80.02 C 721.30 92.76 827.58 105.77 934.02 117.37 C 977.05 121.66 1019.93 127.17 1062.94 131.80 C 1138.11 138.11 1212.91 147.59 1288.08 153.65 C 1339.81 159.20 1391.61 164.17 1443.47 168.26 C 1464.96 170.09 1486.56 170.71 1508.01 173.23 C 1522.04 173.11 1535.99 174.74 1549.97 175.83 C 1570.87 178.10 1592.01 177.38 1612.87 180.11 C 1648.90 182.00 1684.93 183.88 1721.00 184.83 C 1756.45 184.59 1791.98 185.62 1827.32 182.37 C 1846.20 182.15 1865.06 180.80 1883.94 180.30 C 1908.94 178.56 1934.07 179.04 1959.03 176.66 C 2002.39 173.49 2045.69 169.52 2088.98 165.43 C 2147.88 162.50 2206.42 155.00 2265.08 149.13 C 2312.52 144.82 2359.90 139.96 2407.30 135.20 C 2475.43 128.08 2543.44 119.71 2611.53 112.27 C 2682.37 105.12 2753.07 96.59 2823.78 88.29 C 2856.58 84.43 2889.25 79.51 2922.06 75.71 C 2990.86 67.75 3059.63 59.52 3128.26 50.16 C 3145.17 48.77 3162.03 46.66 3178.96 45.25 C 3245.93 36.20 3312.99 27.85 3380.06 19.58 C 3407.47 16.94 3434.63 11.45 3461.78 7.62 C 3474.73 7.92 3487.03 1.90 3500.00 2.53 L 3500.00 217.00 L 0.00 217.00 L 0.00 2.26 Z"></path>
</g>
</svg>